<svg width="101" height="88" viewBox="0 0 101 88" fill="none" xmlns="http://www.w3.org/2000/svg">
<path opacity="0.3" d="M90.875 43.75H75.25V31.25C75.25 24.3555 80.8555 18.75 87.75 18.75H89.3125C91.9102 18.75 94 16.6602 94 14.0625V4.6875C94 2.08984 91.9102 0 89.3125 0H87.75C70.4844 0 56.5 13.9844 56.5 31.25V78.125C56.5 83.3008 60.6992 87.5 65.875 87.5H90.875C96.0508 87.5 100.25 83.3008 100.25 78.125V53.125C100.25 47.9492 96.0508 43.75 90.875 43.75ZM34.625 43.75H19V31.25C19 24.3555 24.6055 18.75 31.5 18.75H33.0625C35.6602 18.75 37.75 16.6602 37.75 14.0625V4.6875C37.75 2.08984 35.6602 0 33.0625 0H31.5C14.2344 0 0.25 13.9844 0.25 31.25V78.125C0.25 83.3008 4.44922 87.5 9.625 87.5H34.625C39.8008 87.5 44 83.3008 44 78.125V53.125C44 47.9492 39.8008 43.75 34.625 43.75Z" fill="#FFD600"/>
</svg>
