<svg width="200" height="248" viewBox="0 0 200 248" fill="none" xmlns="http://www.w3.org/2000/svg">
<path opacity="0.1" d="M17.2104 0L199.602 105.306L199.576 247.481L17.1838 142.176L17.2104 0Z" fill="url(#paint0_linear)"/>
<path opacity="0.2" d="M17.2103 0L199.363 105.173V124.457L17.2103 19.2839V0Z" fill="url(#paint1_linear)"/>
<path d="M0 64.4036L47.1493 91.6186V104.696L0 77.4806V64.4036Z" fill="#F2994A"/>
<path d="M129.992 137.322L177.141 164.537V177.614L129.992 150.399V137.322Z" fill="#F2C94C"/>
<path opacity="0.15" d="M99.0719 154.934L191.09 208.065V247.561L99.0719 194.431V154.934Z" fill="url(#paint2_linear)"/>
<path opacity="0.07" d="M107.982 150.478L200 203.609V243.105L107.982 189.974V150.478Z" fill="url(#paint3_linear)"/>
<path opacity="0.15" d="M105.887 166.897L119.756 174.908V187.985L105.887 179.974V166.897Z" fill="white"/>
<path opacity="0.15" d="M122.965 177.216L136.834 185.226V198.303L122.965 190.293V177.216Z" fill="white"/>
<path opacity="0.15" d="M140.042 186.897L153.911 194.908V207.985L140.042 199.948V186.897Z" fill="white"/>
<path opacity="0.15" d="M157.12 197.216L170.989 205.227V218.304L157.12 210.293V197.216Z" fill="white"/>
<path opacity="0.15" d="M29.5148 53.4485L134.155 113.873V118.329L29.5148 57.9313V53.4485Z" fill="white"/>
<path opacity="0.15" d="M29.5148 62.4407L119.809 114.563V119.019L29.5148 66.8969V62.4407Z" fill="white"/>
<path opacity="0.15" d="M29.5148 71.3267L106.338 115.677V120.133L29.5148 75.7829V71.3267Z" fill="white"/>
<path opacity="0.15" d="M4.32257 96.0748L80.9335 140.293V179.789L4.32257 135.571V96.0748Z" fill="url(#paint4_linear)"/>
<path opacity="0.07" d="M13.2325 91.6185L89.8435 135.836V175.332L13.2325 131.115V91.6185Z" fill="url(#paint5_linear)"/>
<path opacity="0.15" d="M9.54651 108.595L70.4057 143.741V148.197L9.54651 113.078V108.595Z" fill="white"/>
<path opacity="0.15" d="M9.54651 117.587L58.2869 145.73V150.187L9.54651 122.043V117.587Z" fill="white"/>
<path opacity="0.2" d="M37.0459 21.0876C37.0459 23.9789 35.3488 25.3317 33.2803 24.138C31.2119 22.9444 29.5148 19.6287 29.5148 16.764C29.5148 13.8992 31.2119 12.5199 33.2803 13.7136C35.3488 14.9072 37.0459 18.2229 37.0459 21.0876Z" fill="white"/>
<path opacity="0.3" d="M32.0871 172.945C32.0871 178.197 30.9203 181.566 28.5867 183.025C26.2531 184.484 23.1239 184.086 19.1992 181.805C15.2745 179.55 12.1454 176.34 9.8118 172.176C7.4782 168.038 6.3114 163.316 6.3114 158.064C6.3114 152.812 7.4782 149.444 9.8118 147.985C12.1454 146.526 15.2745 146.924 19.1992 149.205C23.1239 151.486 26.2531 154.669 28.5867 158.834C30.9203 162.972 32.0871 167.667 32.0871 172.945ZM23.8664 168.197C23.8664 165.332 23.4421 163.025 22.567 161.221C21.6919 159.417 20.5782 158.144 19.2257 157.348C17.8203 156.526 16.68 156.526 15.8049 157.295C14.9828 158.117 14.5586 159.948 14.5586 162.786C14.5586 165.651 14.9828 167.985 15.8049 169.789C16.68 171.592 17.8203 172.892 19.2257 173.688C20.5782 174.484 21.6919 174.484 22.567 173.688C23.4156 172.892 23.8664 171.035 23.8664 168.197ZM46.2743 166.181L56.3777 172.017L27.9237 213.794L17.8203 207.959L46.2743 166.181ZM68.0192 221.991C68.0192 227.243 66.8524 230.611 64.5188 232.07C62.1852 233.529 59.056 233.131 55.1313 230.85C51.2067 228.595 48.0775 225.386 45.7439 221.221C43.4103 217.083 42.2435 212.362 42.2435 207.11C42.2435 201.858 43.4103 198.489 45.7439 197.03C48.0775 195.571 51.2067 195.969 55.1313 198.25C59.056 200.505 62.1852 203.715 64.5188 207.879C66.8524 212.017 68.0192 216.739 68.0192 221.991ZM59.7985 217.242C59.7985 214.378 59.3743 212.07 58.4992 210.266C57.6241 208.463 56.5103 207.189 55.1579 206.394C53.7524 205.571 52.6121 205.571 51.737 206.341C50.915 207.163 50.4907 208.993 50.4907 211.831C50.4907 214.696 50.915 217.03 51.737 218.834C52.6121 220.638 53.7524 221.937 55.1579 222.733C56.5103 223.529 57.6241 223.529 58.4992 222.733C59.3477 221.964 59.7985 220.107 59.7985 217.242Z" fill="url(#paint6_linear)"/>
<defs>
<linearGradient id="paint0_linear" x1="143.938" y1="88.2762" x2="75.8983" y2="156.163" gradientUnits="userSpaceOnUse">
<stop stop-color="white"/>
<stop offset="1" stop-color="white" stop-opacity="0"/>
</linearGradient>
<linearGradient id="paint1_linear" x1="62.4047" y1="-15.5108" x2="131.598" y2="101.664" gradientUnits="userSpaceOnUse">
<stop stop-color="white"/>
<stop offset="1" stop-color="white" stop-opacity="0"/>
</linearGradient>
<linearGradient id="paint2_linear" x1="153.626" y1="186.443" x2="137.871" y2="213.73" gradientUnits="userSpaceOnUse">
<stop stop-color="white"/>
<stop offset="1" stop-color="white" stop-opacity="0"/>
</linearGradient>
<linearGradient id="paint3_linear" x1="162.544" y1="181.983" x2="146.789" y2="209.27" gradientUnits="userSpaceOnUse">
<stop stop-color="white"/>
<stop offset="1" stop-color="white" stop-opacity="0"/>
</linearGradient>
<linearGradient id="paint4_linear" x1="51.1693" y1="123.121" x2="35.4149" y2="150.408" gradientUnits="userSpaceOnUse">
<stop stop-color="white"/>
<stop offset="1" stop-color="white" stop-opacity="0"/>
</linearGradient>
<linearGradient id="paint5_linear" x1="60.0866" y1="118.661" x2="44.3321" y2="145.948" gradientUnits="userSpaceOnUse">
<stop stop-color="white"/>
<stop offset="1" stop-color="white" stop-opacity="0"/>
</linearGradient>
<linearGradient id="paint6_linear" x1="51.5648" y1="169.844" x2="13.7672" y2="222.819" gradientUnits="userSpaceOnUse">
<stop stop-color="white"/>
<stop offset="1" stop-color="white" stop-opacity="0"/>
</linearGradient>
</defs>
</svg>
