<svg width="250" height="309" viewBox="0 0 250 309" fill="none" xmlns="http://www.w3.org/2000/svg">
<path opacity="0.07" d="M249.966 155.046C245.615 152.51 242.464 152.442 240.511 154.84C238.559 157.204 237.599 161.213 237.599 166.866V197.324C237.599 203.114 237.051 207.911 235.989 211.714C234.927 215.654 233.112 218.464 230.611 220.108C228.179 221.787 224.89 222.232 220.711 221.444C216.635 220.691 211.531 218.566 205.433 215.037L202.521 213.359V189.376L206.152 191.466C210.503 194.001 213.415 194.309 214.888 192.459C216.429 190.678 217.217 186.943 217.217 181.29V154.463C217.217 147.474 217.902 141.958 219.272 137.881C220.643 133.804 223.349 131.234 227.425 130.069C223.349 124.21 220.643 118.489 219.272 112.87C217.902 107.251 217.251 100.947 217.251 93.9576V67.1309C217.251 61.4778 216.463 56.8867 214.922 53.2893C213.483 49.7604 210.571 46.7454 206.187 44.21L202.556 42.1201V18.1371L205.467 19.8159C211.565 23.3448 216.669 27.0793 220.745 31.0536C224.925 35.0622 228.213 39.3449 230.645 43.8331C233.18 48.3899 234.962 53.255 236.024 58.4285C237.086 63.4649 237.634 68.9125 237.634 74.6684V105.127C237.634 110.78 238.593 115.919 240.545 120.51C242.498 125.135 245.649 128.699 250 131.2L249.966 155.046Z" fill="url(#paint0_linear)"/>
<path opacity="0.07" d="M139.49 66.8225C143.841 69.3578 146.992 69.4264 148.945 67.0281C150.897 64.664 151.857 60.6554 151.857 55.0023V24.5439C151.857 18.7537 152.405 13.9571 153.467 10.1541C154.529 6.21404 156.276 3.37034 158.708 1.69154C161.243 0.046987 164.531 -0.398411 168.608 0.35534C172.787 1.14335 177.925 3.30182 184.023 6.83075L186.935 8.50956V32.4926L183.304 30.4026C178.953 27.8673 175.973 27.5246 174.431 29.3062C172.993 31.1564 172.239 34.8909 172.239 40.544V67.3707C172.239 74.36 171.554 79.8761 170.184 83.9532C168.813 87.9961 166.107 90.5999 162.031 91.7648C166.107 97.6235 168.813 103.345 170.184 108.964C171.554 114.583 172.205 120.887 172.205 127.876V154.703C172.205 160.356 172.924 164.947 174.397 168.476C175.939 172.074 178.919 175.123 183.269 177.624L186.901 179.714V203.697L183.989 202.018C177.891 198.489 172.753 194.72 168.574 190.712C164.497 186.737 161.209 182.489 158.674 177.932C156.241 173.444 154.494 168.613 153.432 163.405C152.371 158.369 151.822 152.921 151.822 147.166V116.707C151.822 111.054 150.863 105.915 148.911 101.324C146.958 96.6985 143.807 93.1353 139.456 90.6342L139.49 66.8225Z" fill="url(#paint1_linear)"/>
<path opacity="0.4" d="M236.263 165.324C231.913 162.789 228.761 162.72 226.809 165.118C224.856 167.483 223.897 171.491 223.897 177.144V207.603C223.897 213.393 223.349 218.189 222.287 221.992C221.225 225.932 219.409 228.742 216.909 230.386C214.477 232.065 211.188 232.511 207.009 231.723C202.932 230.969 197.828 228.845 191.731 225.316L188.819 223.637V199.654L192.45 201.744C196.801 204.279 199.712 204.588 201.185 202.738C202.727 200.956 203.515 197.221 203.515 191.568V164.742C203.515 157.752 204.2 152.236 205.57 148.159C206.94 144.082 209.647 141.512 213.723 140.347C209.647 134.489 206.94 128.767 205.57 123.148C204.2 117.529 203.549 111.225 203.549 104.236V77.4092C203.549 71.7561 202.761 67.1651 201.22 63.5676C199.781 60.0387 196.869 57.0237 192.484 54.4883L188.853 52.3984V28.4154L191.765 30.0942C197.862 33.6231 202.967 37.3576 207.043 41.332C211.222 45.3405 214.511 49.6232 216.943 54.1115C219.478 58.6682 221.259 63.5334 222.321 68.7068C223.383 73.7433 223.931 79.1908 223.931 84.9468V115.405C223.931 121.058 224.89 126.198 226.843 130.789C228.796 135.414 231.947 138.977 236.298 141.478L236.263 165.324Z" fill="url(#paint2_linear)"/>
<path opacity="0.4" d="M125.788 77.1009C130.138 79.6363 133.29 79.7048 135.243 77.3065C137.195 74.9425 138.154 70.9339 138.154 65.2807V34.8223C138.154 29.0322 138.702 24.2356 139.764 20.4325C140.826 16.4925 142.573 13.6488 145.005 11.97C147.54 10.3254 150.829 9.88003 154.905 10.6338C159.085 11.4218 164.223 13.5803 170.321 17.1092L173.232 18.788V42.771L169.601 40.681C165.251 38.1457 162.27 37.8031 160.729 39.5847C159.29 41.4348 158.537 45.1693 158.537 50.8224V77.6491C158.537 84.6384 157.851 90.1545 156.481 94.2316C155.111 98.2745 152.405 100.878 148.328 102.043C152.405 107.902 155.111 113.624 156.481 119.242C157.851 124.861 158.502 131.165 158.502 138.155V164.981C158.502 170.635 159.222 175.226 160.695 178.755C162.236 182.352 165.216 185.401 169.567 187.902L173.198 189.992V213.975L170.286 212.296C164.189 208.768 159.05 204.999 154.871 200.99C150.795 197.016 147.506 192.767 144.971 188.211C142.539 183.722 140.792 178.892 139.73 173.684C138.668 168.647 138.12 163.2 138.12 157.444V126.986C138.12 121.332 137.161 116.193 135.208 111.602C133.256 106.977 130.104 103.414 125.754 100.913L125.788 77.1009Z" fill="url(#paint3_linear)"/>
<path opacity="0.15" d="M49.7397 4.19263L108.283 38.0086L108.249 178.241L49.7054 144.425L49.7397 4.19263Z" fill="url(#paint4_linear)"/>
<path d="M38.7435 25.7432L85.2974 52.6384V65.5549L38.7435 38.6597V25.7432Z" fill="#F2C94C"/>
<path opacity="0.15" d="M56.9677 81.7947L101.706 107.628V127.705L56.9677 101.872V81.7947Z" fill="white"/>
<path opacity="0.15" d="M56.9335 57.5034L101.74 83.3708V88.0304L56.9335 62.1972V57.5034Z" fill="white"/>
<path opacity="0.15" d="M56.9335 66.6169L95.6769 88.9897V93.6492L56.9335 71.2765V66.6169Z" fill="white"/>
<path opacity="0.2" d="M49.7397 4.19263L108.283 38.0087V56.8182L49.7397 23.0021V4.19263Z" fill="url(#paint5_linear)"/>
<path opacity="0.2" d="M64.367 22.1456C64.367 24.9893 62.6885 26.3255 60.6331 25.1606C58.5777 23.9615 56.9335 20.7066 56.9335 17.8629C56.9335 15.0192 58.612 13.683 60.6673 14.8479C62.6884 16.0471 64.367 19.3019 64.367 22.1456Z" fill="white"/>
<path opacity="0.15" d="M121.677 134.215L180.221 168.031L180.186 308.263L121.643 274.447L121.677 134.215Z" fill="url(#paint6_linear)"/>
<path d="M143.978 175.02L190.532 201.881V214.763L143.944 187.902L143.978 175.02Z" fill="#F2994A"/>
<path opacity="0.15" d="M128.905 188.348L173.678 214.215V234.258L128.905 208.391V188.348Z" fill="white"/>
<path opacity="0.15" d="M128.837 216.99L173.643 242.858V247.517L128.837 221.684V216.99Z" fill="white"/>
<path opacity="0.15" d="M128.837 225.419L167.58 247.791V252.451L128.837 230.078V225.419Z" fill="white"/>
<path opacity="0.2" d="M121.677 134.215L180.221 168.031V186.84L121.677 153.024V134.215Z" fill="url(#paint7_linear)"/>
<path opacity="0.2" d="M136.305 152.202C136.305 155.046 134.626 156.382 132.571 155.217C130.515 154.018 128.871 150.763 128.871 147.919C128.871 145.075 130.55 143.739 132.605 144.904C134.626 146.069 136.305 149.358 136.305 152.202Z" fill="white"/>
<path opacity="0.3" d="M111.537 153.641L9.62596 94.8141L9.66022 147.954L102.597 201.607L111.606 214.935L111.537 153.641Z" fill="url(#paint8_linear)"/>
<path opacity="0.15" d="M85.3317 151.448L62.9968 138.566V143.225L85.3317 156.108V151.448Z" fill="white"/>
<path opacity="0.15" d="M85.3316 160.802L30.0425 128.87V133.529L85.3659 165.461L85.3316 160.802Z" fill="white"/>
<path opacity="0.15" d="M85.366 170.155L18.6011 131.611V136.27L85.366 174.814V170.155Z" fill="white"/>
<path d="M90.8469 159.5C90.8469 163.885 93.4503 168.921 96.6361 170.772C99.8219 172.622 102.425 170.566 102.425 166.181C102.425 161.795 99.8219 156.759 96.6361 154.909C93.4161 153.058 90.8469 155.114 90.8469 159.5Z" fill="#F2994A"/>
<path opacity="0.15" d="M19.6972 57.5034L6.20036 49.6918V45.135L19.6972 52.9466C20.7934 53.5976 22.4034 54.8653 23.7737 56.8524C25.2467 58.9766 26.3086 61.649 26.3086 64.5612C26.3086 67.7818 25.4865 69.5977 23.9449 70.1459C22.4719 70.6255 20.7591 69.8032 19.6972 69.1865L14.1477 65.966L14.1135 65.9317C13.6339 65.6576 12.8803 65.3835 12.2979 65.5548C11.8183 65.6919 11.236 66.2058 11.236 67.9874C11.236 69.769 11.7841 70.8653 12.2637 71.5163C12.846 72.3386 13.5996 72.921 14.0792 73.1609L14.1477 73.1951L31.1387 82.9939V87.5507L14.2505 77.7862C13.0858 77.1694 11.4073 75.9018 9.96852 73.8804C8.39274 71.6534 7.29655 68.8439 7.29655 65.6919C7.29655 62.5741 8.39274 60.9638 9.93426 60.5184C11.373 60.1073 13.0516 60.724 14.2163 61.4092L19.7315 64.5955C20.5194 65.0409 21.136 65.2465 21.5128 65.1094C21.8211 65.0066 22.3692 64.5612 22.3692 62.2657C22.3692 60.7582 21.8896 59.7989 21.41 59.1137C20.8619 58.3599 20.1425 57.7432 19.6972 57.5034Z" fill="white"/>
<path d="M10.2083 50.1714C10.2083 54.0772 7.91312 55.8931 5.10414 54.2828C2.29515 52.6725 0 48.1843 0 44.2785C0 40.3727 2.29515 38.5568 5.10414 40.1671C7.91312 41.8116 10.2083 46.2999 10.2083 50.1714Z" fill="#F2C94C"/>
<path d="M37.2705 87.859C37.2705 91.7648 34.9753 93.5807 32.1663 91.9704C29.3573 90.3601 27.0622 85.8719 27.0622 81.9661C27.0622 78.0603 29.3573 76.2444 32.1663 77.8547C34.9753 79.4993 37.2705 83.9875 37.2705 87.859Z" fill="#F2C94C"/>
<path opacity="0.2" d="M73.6846 206.986C75.74 208.185 77.3843 211.029 77.3843 213.427V223.877L84.304 227.851C86.3593 229.05 88.0036 231.894 88.0036 234.292C88.0036 236.656 86.3251 237.616 84.304 236.451L77.3843 232.476V242.926C77.3843 245.29 75.7057 246.25 73.6846 245.085C71.6293 243.885 69.985 241.042 69.985 238.644V228.194L63.0653 224.219C61.0099 223.02 59.3657 220.177 59.3657 217.778C59.3657 215.414 61.0442 214.455 63.0653 215.62L69.985 219.594V209.144C69.985 206.746 71.6293 205.787 73.6846 206.986Z" fill="url(#paint9_linear)"/>
<defs>
<linearGradient id="paint0_linear" x1="271.517" y1="25.0642" x2="187.012" y2="171.502" gradientUnits="userSpaceOnUse">
<stop stop-color="white"/>
<stop offset="1" stop-color="white" stop-opacity="0"/>
</linearGradient>
<linearGradient id="paint1_linear" x1="230.894" y1="0.988081" x2="146.388" y2="147.426" gradientUnits="userSpaceOnUse">
<stop stop-color="white"/>
<stop offset="1" stop-color="white" stop-opacity="0"/>
</linearGradient>
<linearGradient id="paint2_linear" x1="257.815" y1="35.3426" x2="173.309" y2="181.781" gradientUnits="userSpaceOnUse">
<stop stop-color="white"/>
<stop offset="1" stop-color="white" stop-opacity="0"/>
</linearGradient>
<linearGradient id="paint3_linear" x1="217.192" y1="11.2665" x2="132.686" y2="157.704" gradientUnits="userSpaceOnUse">
<stop stop-color="white"/>
<stop offset="1" stop-color="white" stop-opacity="0"/>
</linearGradient>
<linearGradient id="paint4_linear" x1="109.345" y1="38.6093" x2="53.4028" y2="135.515" gradientUnits="userSpaceOnUse">
<stop stop-color="white"/>
<stop offset="1" stop-color="white" stop-opacity="0"/>
</linearGradient>
<linearGradient id="paint5_linear" x1="69.8262" y1="4.47895" x2="87.6488" y2="55.005" gradientUnits="userSpaceOnUse">
<stop stop-color="white"/>
<stop offset="1" stop-color="white" stop-opacity="0"/>
</linearGradient>
<linearGradient id="paint6_linear" x1="181.28" y1="168.64" x2="125.338" y2="265.545" gradientUnits="userSpaceOnUse">
<stop stop-color="white"/>
<stop offset="1" stop-color="white" stop-opacity="0"/>
</linearGradient>
<linearGradient id="paint7_linear" x1="141.761" y1="134.51" x2="159.584" y2="185.035" gradientUnits="userSpaceOnUse">
<stop stop-color="white"/>
<stop offset="1" stop-color="white" stop-opacity="0"/>
</linearGradient>
<linearGradient id="paint8_linear" x1="89.3163" y1="132.376" x2="36.6753" y2="173.585" gradientUnits="userSpaceOnUse">
<stop stop-color="white"/>
<stop offset="1" stop-color="white" stop-opacity="0"/>
</linearGradient>
<linearGradient id="paint9_linear" x1="80.8302" y1="220.335" x2="62.8874" y2="234.484" gradientUnits="userSpaceOnUse">
<stop stop-color="white"/>
<stop offset="1" stop-color="white" stop-opacity="0"/>
</linearGradient>
</defs>
</svg>
