<svg width="250" height="309" viewBox="0 0 250 309" fill="none" xmlns="http://www.w3.org/2000/svg">
<path d="M134.353 152.457C139.55 158.964 145.322 166.107 149.371 171.101C153.874 157.542 147.86 138.594 141.152 124.429C139.55 133.237 137.314 142.559 134.353 152.457Z" fill="#F2C94C"/>
<path d="M102.684 102.273C96.0052 108.69 90.0219 120.676 94.5245 139.411C98.5738 139.079 104.315 138.625 109.513 138.14C106.552 124.823 104.315 112.928 102.684 102.273Z" fill="#F2994A"/>
<path opacity="0.2" d="M117.067 169.013C79.7171 25.364 110.45 13.1663 122.054 8.26294C133.658 26.605 164.36 74.3063 126.979 174.733L117.067 169.013Z" fill="url(#paint0_linear)"/>
<path opacity="0.1" d="M128.067 160.75C90.7168 17.1313 121.419 4.90331 133.053 0C144.657 18.342 175.36 66.0434 137.979 166.471L128.067 160.75Z" fill="url(#paint1_linear)"/>
<path opacity="0.15" d="M126.979 174.733C164.36 74.3063 133.658 26.605 122.054 8.26294V171.888L126.979 174.733Z" fill="url(#paint2_linear)"/>
<path opacity="0.1" d="M133.174 58.8397C133.174 67.587 128.037 71.7034 121.691 68.041C115.345 64.3787 110.208 54.2996 110.208 45.5524C110.208 36.8051 115.345 32.6887 121.691 36.3511C128.037 40.0134 133.174 50.0925 133.174 58.8397Z" fill="white"/>
<path opacity="0.1" d="M130.908 207.241C128.279 202.943 127.01 197.495 125.892 192.712C124.592 187.204 123.504 182.512 120.785 181.332C117.672 179.97 116.282 183.42 114.318 188.202C113.169 191.017 111.81 194.347 109.815 197.404C107.67 195.134 105.403 193.257 103.016 191.895C93.0135 186.114 84.6731 191.108 82.7089 203.033C81.349 202.004 79.9892 201.066 78.5991 200.249C62.5529 190.987 49.5588 201.49 49.5588 223.767C49.5588 246.013 62.5529 271.559 78.5689 280.821C94.1316 289.81 106.854 280.155 107.579 259.24C110.51 264.688 114.408 269.258 118.73 271.74C119.848 272.376 120.936 272.86 121.963 273.163C128.188 286.874 137.465 298.678 147.83 304.671C166.566 315.507 181.766 303.279 181.796 277.37C181.796 251.461 166.596 221.648 147.861 210.812C141.666 207.241 135.894 206.151 130.908 207.241Z" fill="url(#paint3_linear)"/>
<path opacity="0.3" d="M161.096 108.145L242.899 155.453L242.929 198.16L168.349 155.029L161.127 157.39L161.096 108.145Z" fill="url(#paint4_linear)"/>
<path d="M219.116 162.96V151.367L250 169.225V180.817L219.116 162.96Z" fill="#F2C94C"/>
<path opacity="0.1" d="M182.129 130.694L200.048 141.046V144.799L182.129 134.448V130.694Z" fill="white"/>
<path opacity="0.1" d="M182.159 138.201L214.493 156.906V160.659L182.159 141.954V138.201Z" fill="white"/>
<path opacity="0.15" d="M182.159 145.707L224.012 169.921V173.674L182.159 149.46V145.707Z" fill="white"/>
<path d="M177.717 132.057C177.717 135.568 175.632 137.232 173.063 135.749C170.494 134.266 168.409 130.21 168.409 126.699C168.409 123.188 170.494 121.523 173.063 123.007C175.662 124.49 177.717 128.546 177.717 132.057Z" fill="#F2C94C"/>
<path opacity="0.3" d="M90.5354 47.8223L8.73309 0.544678L8.76331 43.2519L83.3433 86.3527L90.5656 97.0673L90.5354 47.8223Z" fill="url(#paint5_linear)"/>
<path d="M0 17.1919V5.59949L30.8836 23.4572V35.0496L0 17.1919Z" fill="#F2994A"/>
<path opacity="0.15" d="M69.5033 46.0669L51.5836 35.7155V39.4686L69.5033 49.82V46.0669Z" fill="white"/>
<path opacity="0.15" d="M69.5033 53.5733L34.9633 33.5968V37.35L69.5033 57.3264V53.5733Z" fill="white"/>
<path opacity="0.15" d="M69.5033 61.0795L27.6502 36.8656V40.6188L69.5033 64.8327V61.0795Z" fill="white"/>
<path d="M73.915 52.5139C73.915 56.0249 76.0001 60.0807 78.5688 61.5638C81.1374 63.0469 83.2225 61.3822 83.2225 57.8712C83.2225 54.3602 81.1374 50.3043 78.5688 48.8212C76.0001 47.3684 73.915 49.0028 73.915 52.5139Z" fill="#F2994A"/>
<path opacity="0.2" d="M79.6566 93.405L30.7928 65.1655V90.6506L79.6566 118.89V93.405Z" fill="url(#paint6_linear)"/>
<path opacity="0.15" d="M43.3035 78.5135L60.0447 88.1991V91.2561L43.3035 81.5706V78.5135Z" fill="white"/>
<path opacity="0.15" d="M43.3035 84.6577L74.6102 102.758V105.845L43.3035 87.745V84.6577Z" fill="white"/>
<path d="M40.7347 79.4216C40.7347 81.51 39.4958 82.5089 37.9546 81.6311C36.4135 80.7534 35.1745 78.332 35.1745 76.2133C35.1745 74.1248 36.4135 73.126 37.9546 74.0037C39.4656 74.9118 40.7347 77.3331 40.7347 79.4216Z" fill="#F2994A"/>
<path opacity="0.2" d="M224.767 112.655L175.904 84.4156V109.901L224.767 138.17V112.655Z" fill="url(#paint7_linear)"/>
<path opacity="0.15" d="M188.414 97.7939L205.155 107.48V110.537L188.414 100.851V97.7939Z" fill="white"/>
<path opacity="0.15" d="M188.444 103.938L219.751 122.038V125.125L188.444 107.025V103.938Z" fill="white"/>
<path d="M185.845 98.7019C185.845 100.79 184.607 101.789 183.065 100.911C181.524 100.034 180.285 97.6123 180.285 95.4935C180.285 93.4051 181.524 92.4063 183.065 93.284C184.607 94.192 185.845 96.6134 185.845 98.7019Z" fill="#F2C94C"/>
<defs>
<linearGradient id="paint0_linear" x1="165.597" y1="13.3559" x2="71.4351" y2="176.231" gradientUnits="userSpaceOnUse">
<stop stop-color="white"/>
<stop offset="1" stop-color="white" stop-opacity="0"/>
</linearGradient>
<linearGradient id="paint1_linear" x1="176.594" y1="5.0953" x2="82.4321" y2="167.97" gradientUnits="userSpaceOnUse">
<stop stop-color="white"/>
<stop offset="1" stop-color="white" stop-opacity="0"/>
</linearGradient>
<linearGradient id="paint2_linear" x1="148.08" y1="48.9005" x2="75.3877" y2="179.853" gradientUnits="userSpaceOnUse">
<stop stop-color="white" stop-opacity="0"/>
<stop offset="1" stop-color="white"/>
</linearGradient>
<linearGradient id="paint3_linear" x1="141.258" y1="207.004" x2="100.588" y2="277.354" gradientUnits="userSpaceOnUse">
<stop stop-color="white"/>
<stop offset="1" stop-color="white" stop-opacity="0"/>
</linearGradient>
<linearGradient id="paint4_linear" x1="196.244" y1="109.528" x2="206.854" y2="195.443" gradientUnits="userSpaceOnUse">
<stop stop-color="white"/>
<stop offset="1" stop-color="white" stop-opacity="0"/>
</linearGradient>
<linearGradient id="paint5_linear" x1="72.6961" y1="30.7214" x2="30.4041" y2="63.7816" gradientUnits="userSpaceOnUse">
<stop stop-color="white"/>
<stop offset="1" stop-color="white" stop-opacity="0"/>
</linearGradient>
<linearGradient id="paint6_linear" x1="60.7303" y1="82.4563" x2="49.6843" y2="101.563" gradientUnits="userSpaceOnUse">
<stop stop-color="white"/>
<stop offset="1" stop-color="white" stop-opacity="0"/>
</linearGradient>
<linearGradient id="paint7_linear" x1="205.86" y1="101.73" x2="194.814" y2="120.836" gradientUnits="userSpaceOnUse">
<stop stop-color="white"/>
<stop offset="1" stop-color="white" stop-opacity="0"/>
</linearGradient>
</defs>
</svg>
